<svg width="200" height="115" viewBox="0 0 200 115" fill="none" xmlns="http://www.w3.org/2000/svg">
<path d="M140.231 106C176.687 -23.433 27.1619 -28.5422 59.6559 106" stroke="#44DD55" stroke-opacity="0.6" stroke-width="10"/>
<g filter="url(#filter0_d_0_1)">
<path d="M55 54C55 -12.1972 156.076 3.37858 145.178 54" stroke="#4DD599" stroke-width="20"/>
</g>
<path d="M55.1018 85.7222C56.0146 97.7241 60.4291 106.821 58.1843 107C50.603 107.606 26.2614 108.059 25.8095 87.5893C22.0335 58.0205 46.9191 59.1086 46.9191 59.1086C58.1311 59.931 52.3777 72.6915 55.1018 85.7222Z" fill="#FFDC34"/>
<path d="M9.77642 101.908C6.91903 100.263 4.52442 97.8156 2.89542 94.875C1.26641 91.9343 0.47617 88.6326 0.624627 85.3876C0.773084 82.1425 1.85357 79.0998 3.72945 76.6442C5.60533 74.1886 8.19235 72.4303 11.1634 71.5918L12.2124 74.6952C9.81757 75.3711 7.73223 76.7883 6.22012 78.7678C4.70801 80.7472 3.83706 83.1999 3.71739 85.8156C3.59772 88.4314 4.23472 91.0927 5.54782 93.4632C6.86093 95.8336 8.79117 97.8066 11.0944 99.1327L9.77642 101.908Z" fill="#4DD599"/>
<path d="M16.7086 97.8847C14.7036 96.9204 12.9877 95.3842 11.778 93.4702C10.5682 91.5563 9.91892 89.3506 9.91219 87.1321C9.90545 84.9136 10.5416 82.7819 11.7401 81.0066C12.9387 79.2313 14.6458 77.8921 16.6457 77.1584L17.4651 79.2149C15.853 79.8063 14.4769 80.8858 13.5108 82.3168C12.5447 83.7478 12.0319 85.4661 12.0373 87.2544C12.0427 89.0427 12.5661 90.8207 13.5413 92.3635C14.5165 93.9063 15.8996 95.1446 17.5158 95.9219L16.7086 97.8847Z" fill="#4DD599"/>
<path d="M182.906 80.6857C184.731 81.9706 186.181 83.7718 187.072 85.8615C187.963 87.9512 188.254 90.2357 187.91 92.4259C187.565 94.6161 186.6 96.6138 185.136 98.1663C183.672 99.7188 181.776 100.756 179.686 101.148L179.203 98.9824C180.888 98.6668 182.416 97.8305 183.596 96.579C184.776 95.3276 185.554 93.7173 185.832 91.9518C186.11 90.1863 185.875 88.3449 185.157 86.6604C184.439 84.9759 183.27 83.524 181.798 82.4883L182.906 80.6857Z" fill="#4DD599"/>
<path d="M192.835 78.0427C195.334 80.4328 197.205 83.5138 198.211 86.8961C199.217 90.2784 199.313 93.8102 198.487 97.0446C197.66 100.279 195.949 103.071 193.569 105.068C191.189 107.064 188.247 108.175 185.115 108.261L184.72 104.863C187.245 104.794 189.616 103.898 191.534 102.289C193.453 100.68 194.833 98.429 195.499 95.8217C196.165 93.2145 196.087 90.3676 195.277 87.6412C194.466 84.9148 192.958 82.4313 190.943 80.5046L192.835 78.0427Z" fill="#4DD599"/>
<path d="M140.231 106C176.687 -23.433 27.1619 -28.5422 59.6559 106" stroke="#44DD55" stroke-opacity="0.6" stroke-width="10"/>
<g filter="url(#filter1_d_0_1)">
<path d="M55 54C55 -12.1972 156.076 3.37858 145.178 54" stroke="#4DD599" stroke-width="20"/>
</g>
<path d="M55.1018 85.7222C56.0146 97.7241 60.4291 106.821 58.1843 107C50.603 107.606 26.2614 108.059 25.8095 87.5893C22.0335 58.0205 46.9191 59.1086 46.9191 59.1086C58.1311 59.931 52.3777 72.6915 55.1018 85.7222Z" fill="#FFDC34"/>
<path d="M9.77642 101.908C6.91903 100.263 4.52442 97.8156 2.89542 94.875C1.26641 91.9343 0.47617 88.6326 0.624627 85.3876C0.773084 82.1425 1.85357 79.0998 3.72945 76.6442C5.60533 74.1886 8.19235 72.4303 11.1634 71.5918L12.2124 74.6952C9.81757 75.3711 7.73223 76.7883 6.22012 78.7678C4.70801 80.7472 3.83706 83.1999 3.71739 85.8156C3.59772 88.4314 4.23472 91.0927 5.54782 93.4632C6.86093 95.8336 8.79117 97.8066 11.0944 99.1327L9.77642 101.908Z" fill="#4DD599"/>
<path d="M16.7086 97.8847C14.7036 96.9204 12.9877 95.3842 11.778 93.4702C10.5682 91.5563 9.91892 89.3506 9.91219 87.1321C9.90545 84.9136 10.5416 82.7819 11.7401 81.0066C12.9387 79.2313 14.6458 77.8921 16.6457 77.1584L17.4651 79.2149C15.853 79.8063 14.4769 80.8858 13.5108 82.3168C12.5447 83.7478 12.0319 85.4661 12.0373 87.2544C12.0427 89.0427 12.5661 90.8207 13.5413 92.3635C14.5165 93.9063 15.8996 95.1446 17.5158 95.9219L16.7086 97.8847Z" fill="#4DD599"/>
<path d="M182.906 80.6857C184.731 81.9706 186.181 83.7718 187.072 85.8615C187.963 87.9512 188.254 90.2357 187.91 92.4259C187.565 94.6161 186.6 96.6138 185.136 98.1663C183.672 99.7188 181.776 100.756 179.686 101.148L179.203 98.9824C180.888 98.6668 182.416 97.8305 183.596 96.579C184.776 95.3276 185.554 93.7173 185.832 91.9518C186.11 90.1863 185.875 88.3449 185.157 86.6604C184.439 84.9759 183.27 83.524 181.798 82.4883L182.906 80.6857Z" fill="#4DD599"/>
<path d="M192.835 78.0427C195.334 80.4328 197.205 83.5138 198.211 86.8961C199.217 90.2784 199.313 93.8102 198.487 97.0446C197.66 100.279 195.949 103.071 193.569 105.068C191.189 107.064 188.247 108.175 185.115 108.261L184.72 104.863C187.245 104.794 189.616 103.898 191.534 102.289C193.453 100.68 194.833 98.429 195.499 95.8217C196.165 93.2145 196.087 90.3676 195.277 87.6412C194.466 84.9148 192.958 82.4313 190.943 80.5046L192.835 78.0427Z" fill="#4DD599"/>
<g filter="url(#filter2_d_0_1)">
<path d="M147.7 85.3787C146.483 97.3523 141.839 106.329 144.079 106.567C151.643 107.375 175.966 108.475 176.936 88.0249C181.46 58.5666 156.554 58.9919 156.554 58.9919C145.325 59.5156 150.753 72.425 147.7 85.3787Z" fill="#FFDC34"/>
<path d="M156.579 59.492L156.571 59.492C153.874 59.6195 152.267 60.48 151.262 61.8163C150.232 63.1858 149.771 65.1339 149.559 67.57C149.419 69.1777 149.389 70.9417 149.358 72.8381C149.342 73.8187 149.325 74.8347 149.292 75.8828C149.196 78.9252 148.962 82.1883 148.193 85.4642C147.596 91.3161 146.187 96.4525 145.163 100.189C145.133 100.297 145.104 100.403 145.075 100.508C144.555 102.407 144.158 103.887 144.024 104.907C143.956 105.425 143.967 105.755 144.021 105.942C144.046 106.026 144.071 106.051 144.075 106.055C144.076 106.056 144.078 106.058 144.083 106.06C144.089 106.062 144.103 106.067 144.129 106.07C147.895 106.472 155.784 106.939 162.832 104.789C166.351 103.716 169.631 101.999 172.088 99.3237C174.538 96.6561 176.199 93.004 176.437 87.9987L176.438 87.9725L176.442 87.9465C177.563 80.649 176.854 75.2488 175.199 71.2504C173.545 67.2561 170.931 64.6243 168.177 62.8843C165.416 61.1406 162.51 60.2905 160.286 59.8776C159.176 59.6714 158.24 59.5751 157.584 59.5303C157.256 59.5079 156.998 59.4984 156.824 59.4945C156.737 59.4925 156.671 59.4919 156.627 59.4919L156.579 59.492Z" stroke="#FFDC34"/>
</g>
<defs>
<filter id="filter0_d_0_1" x="41" y="0.000915527" width="119.003" height="64.1036" filterUnits="userSpaceOnUse" color-interpolation-filters="sRGB">
<feFlood flood-opacity="0" result="BackgroundImageFix"/>
<feColorMatrix in="SourceAlpha" type="matrix" values="0 0 0 0 0 0 0 0 0 0 0 0 0 0 0 0 0 0 127 0" result="hardAlpha"/>
<feOffset dy="4"/>
<feGaussianBlur stdDeviation="2"/>
<feComposite in2="hardAlpha" operator="out"/>
<feColorMatrix type="matrix" values="0 0 0 0 0 0 0 0 0 0 0 0 0 0 0 0 0 0 0.25 0"/>
<feBlend mode="normal" in2="BackgroundImageFix" result="effect1_dropShadow_0_1"/>
<feBlend mode="normal" in="SourceGraphic" in2="effect1_dropShadow_0_1" result="shape"/>
</filter>
<filter id="filter1_d_0_1" x="41" y="0.000915527" width="119.003" height="64.1036" filterUnits="userSpaceOnUse" color-interpolation-filters="sRGB">
<feFlood flood-opacity="0" result="BackgroundImageFix"/>
<feColorMatrix in="SourceAlpha" type="matrix" values="0 0 0 0 0 0 0 0 0 0 0 0 0 0 0 0 0 0 127 0" result="hardAlpha"/>
<feOffset dy="4"/>
<feGaussianBlur stdDeviation="2"/>
<feComposite in2="hardAlpha" operator="out"/>
<feColorMatrix type="matrix" values="0 0 0 0 0 0 0 0 0 0 0 0 0 0 0 0 0 0 0.25 0"/>
<feBlend mode="normal" in2="BackgroundImageFix" result="effect1_dropShadow_0_1"/>
<feBlend mode="normal" in="SourceGraphic" in2="effect1_dropShadow_0_1" result="shape"/>
</filter>
<filter id="filter2_d_0_1" x="139.477" y="58.9916" width="42.0085" height="55.9211" filterUnits="userSpaceOnUse" color-interpolation-filters="sRGB">
<feFlood flood-opacity="0" result="BackgroundImageFix"/>
<feColorMatrix in="SourceAlpha" type="matrix" values="0 0 0 0 0 0 0 0 0 0 0 0 0 0 0 0 0 0 127 0" result="hardAlpha"/>
<feOffset dy="4"/>
<feGaussianBlur stdDeviation="2"/>
<feComposite in2="hardAlpha" operator="out"/>
<feColorMatrix type="matrix" values="0 0 0 0 0 0 0 0 0 0 0 0 0 0 0 0 0 0 0.25 0"/>
<feBlend mode="normal" in2="BackgroundImageFix" result="effect1_dropShadow_0_1"/>
<feBlend mode="normal" in="SourceGraphic" in2="effect1_dropShadow_0_1" result="shape"/>
</filter>
</defs>
</svg>
